<svg width="98" height="115" viewBox="0 0 98 115" fill="none" xmlns="http://www.w3.org/2000/svg">
<path fill-rule="evenodd" clip-rule="evenodd" d="M0.0385742 48.9614C0.0385742 21.9208 21.9592 0 49 0C76.0407 0 97.9614 21.9208 97.9614 48.9614C97.9614 66.5056 88.9083 81.2636 79.0653 92.1549C69.1914 103.08 58.1588 110.524 53.3603 113.513C50.6687 115.189 47.3313 115.189 44.6397 113.513C39.8412 110.524 28.8086 103.08 18.9347 92.1549C9.09166 81.2636 0.0385742 66.5056 0.0385742 48.9614Z" fill="#55BDE6"/>
<path fill-rule="evenodd" clip-rule="evenodd" d="M48.8568 71.7028C61.4951 71.7028 71.7404 61.4575 71.7404 48.8192C71.7404 36.1808 61.4951 25.9355 48.8568 25.9355C36.2184 25.9355 25.9731 36.1808 25.9731 48.8192C25.9731 61.4575 36.2184 71.7028 48.8568 71.7028Z" fill="white"/>
</svg>
