<svg width="99" height="115" viewBox="0 0 99 115" fill="none" xmlns="http://www.w3.org/2000/svg">
<path fill-rule="evenodd" clip-rule="evenodd" d="M0.538574 48.9614C0.538574 21.9208 22.4592 0 49.5 0C76.5408 0 98.4614 21.9208 98.4614 48.9614C98.4614 66.5056 89.4083 81.2636 79.5653 92.1549C69.6914 103.08 58.6588 110.524 53.8603 113.513C51.1687 115.189 47.8313 115.189 45.1397 113.513C40.3412 110.524 29.3086 103.08 19.4347 92.1549C9.59166 81.2636 0.538574 66.5056 0.538574 48.9614Z" fill="#1F2F37"/>
<path fill-rule="evenodd" clip-rule="evenodd" d="M49.3568 71.7028C61.9951 71.7028 72.2404 61.4575 72.2404 48.8192C72.2404 36.1808 61.9951 25.9355 49.3568 25.9355C36.7184 25.9355 26.4731 36.1808 26.4731 48.8192C26.4731 61.4575 36.7184 71.7028 49.3568 71.7028Z" fill="#55BDE6"/>
</svg>
